<svg width="128" height="128" viewBox="0 0 128 128" fill="none" xmlns="http://www.w3.org/2000/svg">
<rect width="128" height="128" fill="#1E1E1E"/>
<g clip-path="url(#clip0_0_1)">
<g filter="url(#filter0_d_0_1)">
<path fill-rule="evenodd" clip-rule="evenodd" d="M50.732 43.771L20.525 96.428L13.473 84.395L21.613 70.292L5.446 70.25L2 64.237L5.519 58.087L28.532 58.16L36.802 43.808L50.732 43.771ZM53.05 85.865L113.459 85.868L106.632 98.032L90.427 97.987L98.474 112.102L95.024 118.112L87.974 118.12L76.529 98.023L60.046 97.989L53.05 85.865ZM88.21 62.791L58.008 10.131L71.888 10L79.951 24.148L88.071 10.076L94.968 10.078L98.5 16.221L86.93 36.245L95.143 50.631L88.21 62.791Z" fill="#DED0DB"/>
</g>
<path fill-rule="evenodd" clip-rule="evenodd" d="M39.831 65.463L70.033 118.123L56.153 118.254L48.09 104.106L39.97 118.178L33.073 118.176L29.541 112.033L41.111 92.009L32.898 77.623L39.831 65.463ZM74.911 42.256L14.502 42.253L21.33 30.09L37.534 30.135L29.487 16.02L32.937 10.01L39.988 10L51.432 30.097L67.916 30.131L74.912 42.255L74.911 42.256ZM77.268 84.472L107.475 31.814L114.527 43.848L106.386 57.95L122.554 57.993L126 64.006L122.481 70.156L99.468 70.083L91.198 84.435L77.268 84.472Z" fill="#7C757A"/>
</g>
<defs>
<filter id="filter0_d_0_1" x="-2" y="10" width="119.459" height="116.12" filterUnits="userSpaceOnUse" color-interpolation-filters="sRGB">
<feFlood flood-opacity="0" result="BackgroundImageFix"/>
<feColorMatrix in="SourceAlpha" type="matrix" values="0 0 0 0 0 0 0 0 0 0 0 0 0 0 0 0 0 0 127 0" result="hardAlpha"/>
<feOffset dy="4"/>
<feGaussianBlur stdDeviation="2"/>
<feComposite in2="hardAlpha" operator="out"/>
<feColorMatrix type="matrix" values="0 0 0 0 0 0 0 0 0 0 0 0 0 0 0 0 0 0 0.25 0"/>
<feBlend mode="normal" in2="BackgroundImageFix" result="effect1_dropShadow_0_1"/>
<feBlend mode="normal" in="SourceGraphic" in2="effect1_dropShadow_0_1" result="shape"/>
</filter>
<clipPath id="clip0_0_1">
<rect width="128" height="128" fill="white"/>
</clipPath>
</defs>
</svg>
